<svg width="1417" height="315" viewBox="0 0 1417 315" fill="none" xmlns="http://www.w3.org/2000/svg">
<rect width="1440" height="324" fill="#363636"/>
<path d="M146.013 147.668H142.058V155H141.333V147.039H146.013V147.668ZM147.5 154.429C147.5 153.95 147.695 153.711 148.086 153.711C148.486 153.711 148.687 153.95 148.687 154.429C148.687 154.907 148.486 155.146 148.086 155.146C147.695 155.146 147.5 154.907 147.5 154.429ZM160.01 155L156.018 145.112H155.959C155.999 145.718 156.018 146.338 156.018 146.973V155H155.3V144.292H156.458L160.251 153.711H160.295L164.089 144.292H165.217V155H164.463V146.885C164.463 146.318 164.492 145.732 164.551 145.127H164.492L160.486 155H160.01ZM174.651 151.008C174.651 152.307 174.336 153.323 173.706 154.055C173.076 154.783 172.207 155.146 171.099 155.146C170.4 155.146 169.785 154.978 169.253 154.641C168.721 154.304 168.313 153.821 168.03 153.191C167.747 152.561 167.605 151.833 167.605 151.008C167.605 149.709 167.92 148.699 168.55 147.976C169.18 147.249 170.044 146.885 171.143 146.885C172.236 146.885 173.093 147.253 173.713 147.991C174.338 148.723 174.651 149.729 174.651 151.008ZM168.367 151.008C168.367 152.102 168.606 152.957 169.084 153.572C169.568 154.182 170.249 154.487 171.128 154.487C172.007 154.487 172.686 154.182 173.164 153.572C173.647 152.957 173.889 152.102 173.889 151.008C173.889 149.91 173.645 149.058 173.157 148.452C172.673 147.847 171.992 147.544 171.113 147.544C170.234 147.544 169.556 147.847 169.077 148.452C168.604 149.053 168.367 149.905 168.367 151.008ZM180.034 155.146C178.896 155.146 178.005 154.788 177.361 154.07C176.716 153.352 176.394 152.351 176.394 151.067C176.394 149.749 176.729 148.723 177.397 147.991C178.066 147.253 178.982 146.885 180.144 146.885C180.833 146.885 181.492 147.004 182.122 147.244L181.924 147.888C181.235 147.659 180.637 147.544 180.129 147.544C179.153 147.544 178.413 147.847 177.91 148.452C177.407 149.053 177.156 149.919 177.156 151.052C177.156 152.126 177.407 152.969 177.91 153.579C178.413 154.185 179.116 154.487 180.02 154.487C180.742 154.487 181.414 154.358 182.034 154.099V154.773C181.526 155.022 180.859 155.146 180.034 155.146ZM188.311 147.039H189.211L185.645 150.891L189.468 155H188.494L184.729 150.964V155H183.989V147.039H184.729V150.906L188.311 147.039ZM196.982 148.958C196.982 149.46 196.858 149.856 196.609 150.144C196.36 150.427 195.955 150.625 195.393 150.737V150.789C196.033 150.862 196.494 151.047 196.777 151.345C197.065 151.638 197.209 152.061 197.209 152.612C197.209 153.379 196.956 153.97 196.448 154.385C195.945 154.795 195.208 155 194.236 155H190.874V147.039H194.25C195.159 147.039 195.84 147.202 196.294 147.529C196.753 147.856 196.982 148.333 196.982 148.958ZM196.44 152.598C196.44 151.621 195.691 151.133 194.192 151.133H191.599V154.312H194.294C195.725 154.312 196.44 153.74 196.44 152.598ZM196.213 149.016C196.213 148.552 196.047 148.223 195.715 148.027C195.383 147.827 194.885 147.727 194.221 147.727H191.599V150.452H194.133C194.875 150.452 195.408 150.337 195.73 150.107C196.052 149.878 196.213 149.514 196.213 149.016ZM204.204 155L204.021 153.74H203.962C203.562 154.253 203.149 154.617 202.725 154.832C202.305 155.042 201.807 155.146 201.23 155.146C200.449 155.146 199.841 154.946 199.407 154.546C198.972 154.146 198.755 153.591 198.755 152.883C198.755 152.107 199.077 151.504 199.722 151.074C200.371 150.645 201.309 150.417 202.534 150.393L204.05 150.349V149.822C204.05 149.065 203.896 148.494 203.589 148.108C203.281 147.722 202.786 147.529 202.102 147.529C201.365 147.529 200.601 147.734 199.81 148.145L199.539 147.515C200.413 147.104 201.277 146.899 202.131 146.899C203.005 146.899 203.657 147.126 204.087 147.581C204.521 148.035 204.739 148.743 204.739 149.705V155H204.204ZM201.274 154.487C202.124 154.487 202.793 154.246 203.281 153.762C203.774 153.274 204.021 152.598 204.021 151.733V150.95L202.629 151.008C201.511 151.062 200.713 151.238 200.234 151.536C199.761 151.829 199.524 152.288 199.524 152.913C199.524 153.411 199.675 153.799 199.978 154.077C200.286 154.351 200.718 154.487 201.274 154.487ZM208.152 153.257L208.24 153.411C207.874 154.705 207.449 155.879 206.965 156.934H206.489C206.865 155.591 207.134 154.365 207.295 153.257H208.152ZM213.11 147.039H213.857L215.542 151.506C216.055 152.878 216.379 153.804 216.516 154.282H216.56C216.765 153.652 217.1 152.712 217.563 151.462L219.248 147.039H219.995L216.428 156.289C216.14 157.041 215.898 157.549 215.703 157.812C215.508 158.076 215.278 158.274 215.015 158.406C214.756 158.538 214.441 158.604 214.07 158.604C213.792 158.604 213.481 158.552 213.14 158.45V157.82C213.423 157.898 213.728 157.937 214.055 157.937C214.304 157.937 214.524 157.878 214.714 157.761C214.905 157.644 215.076 157.461 215.227 157.212C215.383 156.968 215.562 156.577 215.762 156.04C215.967 155.508 216.099 155.161 216.157 155L213.11 147.039ZM226.836 155H226.118V147.712H223.298C223.152 149.641 222.971 151.113 222.756 152.129C222.546 153.14 222.273 153.884 221.936 154.363C221.604 154.836 221.172 155.073 220.64 155.073C220.449 155.073 220.283 155.054 220.142 155.015V154.355C220.234 154.385 220.366 154.399 220.537 154.399C221.089 154.399 221.533 153.818 221.87 152.656C222.212 151.489 222.471 149.617 222.646 147.039H226.836V155ZM229.355 154.429C229.355 153.95 229.551 153.711 229.941 153.711C230.342 153.711 230.542 153.95 230.542 154.429C230.542 154.907 230.342 155.146 229.941 155.146C229.551 155.146 229.355 154.907 229.355 154.429ZM241.726 144.812C240.383 144.812 239.326 145.242 238.555 146.101C237.783 146.96 237.397 148.137 237.397 149.631C237.397 151.16 237.761 152.346 238.489 153.191C239.216 154.036 240.256 154.458 241.609 154.458C242.507 154.458 243.333 154.343 244.084 154.114V154.773C243.376 155.022 242.493 155.146 241.433 155.146C239.929 155.146 238.745 154.661 237.881 153.689C237.017 152.717 236.584 151.36 236.584 149.617C236.584 148.528 236.79 147.568 237.2 146.738C237.615 145.908 238.208 145.269 238.979 144.819C239.756 144.365 240.657 144.138 241.682 144.138C242.727 144.138 243.662 144.333 244.487 144.724L244.187 145.398C243.406 145.007 242.585 144.812 241.726 144.812ZM251.343 147.668H248.691V155H247.974V147.668H245.256V147.039H251.343V147.668ZM256.389 155.146C255.164 155.146 254.27 154.688 253.708 153.77H253.657L253.679 154.385C253.699 154.746 253.708 155.142 253.708 155.571V158.604H252.983V147.039H253.599L253.738 148.174H253.782C254.329 147.314 255.203 146.885 256.404 146.885C257.478 146.885 258.296 147.239 258.857 147.947C259.424 148.65 259.707 149.675 259.707 151.023C259.707 152.332 259.409 153.347 258.813 154.07C258.223 154.788 257.415 155.146 256.389 155.146ZM256.375 154.502C257.19 154.502 257.82 154.199 258.264 153.594C258.713 152.988 258.938 152.141 258.938 151.052C258.938 148.713 258.093 147.544 256.404 147.544C255.476 147.544 254.795 147.8 254.36 148.313C253.926 148.821 253.708 149.651 253.708 150.803V151.038C253.708 152.283 253.916 153.171 254.331 153.704C254.751 154.236 255.432 154.502 256.375 154.502ZM268.503 151.008C268.503 152.307 268.188 153.323 267.559 154.055C266.929 154.783 266.06 155.146 264.951 155.146C264.253 155.146 263.638 154.978 263.105 154.641C262.573 154.304 262.166 153.821 261.882 153.191C261.599 152.561 261.458 151.833 261.458 151.008C261.458 149.709 261.772 148.699 262.402 147.976C263.032 147.249 263.896 146.885 264.995 146.885C266.089 146.885 266.946 147.253 267.566 147.991C268.191 148.723 268.503 149.729 268.503 151.008ZM262.219 151.008C262.219 152.102 262.458 152.957 262.937 153.572C263.42 154.182 264.102 154.487 264.98 154.487C265.859 154.487 266.538 154.182 267.017 153.572C267.5 152.957 267.742 152.102 267.742 151.008C267.742 149.91 267.498 149.058 267.009 148.452C266.526 147.847 265.845 147.544 264.966 147.544C264.087 147.544 263.408 147.847 262.93 148.452C262.456 149.053 262.219 149.905 262.219 151.008ZM271.396 147.039V152.795L271.353 154.297L276.077 147.039H277.043V155H276.348V149.28L276.377 147.742L271.653 155H270.708V147.039H271.396ZM284.771 147.668H282.119V155H281.401V147.668H278.684V147.039H284.771V147.668ZM289.626 155.146C288.469 155.146 287.566 154.79 286.917 154.077C286.272 153.364 285.95 152.366 285.95 151.082C285.95 149.812 286.262 148.796 286.887 148.035C287.512 147.268 288.354 146.885 289.414 146.885C290.352 146.885 291.091 147.212 291.633 147.866C292.175 148.521 292.446 149.409 292.446 150.532V151.118H286.711C286.721 152.212 286.975 153.047 287.473 153.623C287.976 154.199 288.694 154.487 289.626 154.487C290.081 154.487 290.479 154.456 290.82 154.392C291.167 154.329 291.604 154.192 292.131 153.982V154.641C291.682 154.836 291.267 154.968 290.886 155.037C290.505 155.11 290.085 155.146 289.626 155.146ZM289.414 147.529C288.647 147.529 288.032 147.783 287.568 148.291C287.104 148.794 286.833 149.521 286.755 150.474H291.677C291.677 149.551 291.477 148.831 291.077 148.313C290.676 147.791 290.122 147.529 289.414 147.529ZM300.151 155H299.434V147.712H296.614C296.467 149.641 296.287 151.113 296.072 152.129C295.862 153.14 295.588 153.884 295.251 154.363C294.919 154.836 294.487 155.073 293.955 155.073C293.765 155.073 293.599 155.054 293.457 155.015V154.355C293.55 154.385 293.682 154.399 293.853 154.399C294.404 154.399 294.849 153.818 295.186 152.656C295.527 151.489 295.786 149.617 295.962 147.039H300.151V155ZM306.033 155.146C304.875 155.146 303.972 154.79 303.323 154.077C302.678 153.364 302.356 152.366 302.356 151.082C302.356 149.812 302.668 148.796 303.293 148.035C303.918 147.268 304.761 146.885 305.82 146.885C306.758 146.885 307.498 147.212 308.04 147.866C308.582 148.521 308.853 149.409 308.853 150.532V151.118H303.118C303.127 152.212 303.381 153.047 303.879 153.623C304.382 154.199 305.1 154.487 306.033 154.487C306.487 154.487 306.885 154.456 307.227 154.392C307.573 154.329 308.01 154.192 308.538 153.982V154.641C308.088 154.836 307.673 154.968 307.292 155.037C306.912 155.11 306.492 155.146 306.033 155.146ZM305.82 147.529C305.054 147.529 304.438 147.783 303.975 148.291C303.511 148.794 303.24 149.521 303.162 150.474H308.083C308.083 149.551 307.883 148.831 307.483 148.313C307.083 147.791 306.528 147.529 305.82 147.529ZM311.738 147.039V152.795L311.694 154.297L316.418 147.039H317.385V155H316.689V149.28L316.719 147.742L311.995 155H311.05V147.039H311.738ZM314.221 145.911C313.494 145.911 312.939 145.75 312.559 145.427C312.178 145.1 311.956 144.575 311.892 143.853H312.537C312.61 144.39 312.776 144.771 313.035 144.995C313.293 145.215 313.694 145.325 314.236 145.325C314.773 145.325 315.171 145.21 315.43 144.98C315.693 144.751 315.854 144.375 315.913 143.853H316.558C316.455 145.225 315.676 145.911 314.221 145.911ZM320.886 153.257L320.974 153.411C320.608 154.705 320.183 155.879 319.7 156.934H319.224C319.6 155.591 319.868 154.365 320.029 153.257H320.886ZM330.84 155H330.122V147.2C330.122 146.492 330.151 145.757 330.21 144.995C330.137 145.068 330.061 145.139 329.983 145.208C329.905 145.276 329.15 145.869 327.72 146.987L327.302 146.467L330.21 144.292H330.84V155ZM338.347 148.562C339.49 148.562 340.388 148.838 341.042 149.39C341.702 149.941 342.031 150.701 342.031 151.667C342.031 152.766 341.689 153.621 341.006 154.231C340.322 154.841 339.38 155.146 338.179 155.146C337.646 155.146 337.141 155.095 336.663 154.993C336.184 154.885 335.784 154.734 335.461 154.539V153.784C335.989 154.053 336.458 154.241 336.868 154.348C337.278 154.451 337.715 154.502 338.179 154.502C339.116 154.502 339.868 154.255 340.435 153.762C341.001 153.264 341.284 152.593 341.284 151.748C341.284 150.952 341.008 150.327 340.457 149.873C339.905 149.419 339.155 149.192 338.208 149.192C337.573 149.192 336.909 149.287 336.216 149.478L335.776 149.192L336.201 144.292H341.357V144.995H336.89L336.56 148.774C337.322 148.633 337.917 148.562 338.347 148.562Z" fill="white"/>
<path d="M1140.31 155H1139.55V144.995H1136.07V144.292H1143.79V144.995H1140.31V155ZM1148.41 155.146C1147.26 155.146 1146.35 154.79 1145.7 154.077C1145.06 153.364 1144.74 152.366 1144.74 151.082C1144.74 149.812 1145.05 148.796 1145.68 148.035C1146.3 147.268 1147.14 146.885 1148.2 146.885C1149.14 146.885 1149.88 147.212 1150.42 147.866C1150.96 148.521 1151.23 149.409 1151.23 150.532V151.118H1145.5C1145.51 152.212 1145.76 153.047 1146.26 153.623C1146.76 154.199 1147.48 154.487 1148.41 154.487C1148.87 154.487 1149.27 154.456 1149.61 154.392C1149.96 154.329 1150.39 154.192 1150.92 153.982V154.641C1150.47 154.836 1150.06 154.968 1149.67 155.037C1149.29 155.11 1148.87 155.146 1148.41 155.146ZM1148.2 147.529C1147.44 147.529 1146.82 147.783 1146.36 148.291C1145.89 148.794 1145.62 149.521 1145.54 150.474H1150.47C1150.47 149.551 1150.27 148.831 1149.86 148.313C1149.46 147.791 1148.91 147.529 1148.2 147.529ZM1158.94 155H1158.22V147.712H1155.4C1155.26 149.641 1155.07 151.113 1154.86 152.129C1154.65 153.14 1154.38 153.884 1154.04 154.363C1153.71 154.836 1153.28 155.073 1152.74 155.073C1152.55 155.073 1152.39 155.054 1152.25 155.015V154.355C1152.34 154.385 1152.47 154.399 1152.64 154.399C1153.19 154.399 1153.64 153.818 1153.97 152.656C1154.32 151.489 1154.57 149.617 1154.75 147.039H1158.94V155ZM1161.46 154.429C1161.46 153.95 1161.65 153.711 1162.04 153.711C1162.45 153.711 1162.65 153.95 1162.65 154.429C1162.65 154.907 1162.45 155.146 1162.04 155.146C1161.65 155.146 1161.46 154.907 1161.46 154.429ZM1165.03 154.429C1165.03 153.95 1165.23 153.711 1165.62 153.711C1166.02 153.711 1166.22 153.95 1166.22 154.429C1166.22 154.907 1166.02 155.146 1165.62 155.146C1165.23 155.146 1165.03 154.907 1165.03 154.429ZM1165.03 147.888C1165.03 147.41 1165.23 147.17 1165.62 147.17C1166.02 147.17 1166.22 147.41 1166.22 147.888C1166.22 148.147 1166.16 148.333 1166.04 148.445C1165.93 148.557 1165.79 148.613 1165.62 148.613C1165.45 148.613 1165.31 148.557 1165.2 148.445C1165.09 148.333 1165.03 148.147 1165.03 147.888ZM1175.9 149.404H1179.07V150.005H1175.9V153.169H1175.29V150.005H1172.13V149.404H1175.29V146.226H1175.9V149.404ZM1182.33 155L1186.74 144.995H1180.69V144.292H1187.61V144.827L1183.19 155H1182.33ZM1192.95 150.891C1192.95 149.597 1193.14 148.386 1193.52 147.258C1193.9 146.13 1194.44 145.142 1195.16 144.292H1195.99C1195.26 145.181 1194.71 146.189 1194.32 147.317C1193.94 148.44 1193.74 149.626 1193.74 150.876C1193.74 153.235 1194.49 155.4 1195.97 157.373H1195.16C1194.44 156.543 1193.89 155.574 1193.52 154.465C1193.14 153.357 1192.95 152.166 1192.95 150.891ZM1204.8 152.268H1202.95V155H1202.26V152.268H1196.75V151.777L1202.06 144.233H1202.95V151.638H1204.8V152.268ZM1202.26 151.638V148.577C1202.26 147.102 1202.3 145.864 1202.36 144.863H1202.31C1202.21 145.044 1201.91 145.503 1201.41 146.24L1197.63 151.638H1202.26ZM1212.6 148.833C1212.6 150.239 1212.41 151.416 1212.04 152.363C1211.67 153.311 1211.14 154.011 1210.43 154.465C1209.73 154.919 1208.87 155.146 1207.87 155.146C1207.36 155.146 1206.9 155.083 1206.47 154.956V154.326C1206.68 154.395 1206.93 154.448 1207.22 154.487C1207.52 154.521 1207.75 154.539 1207.9 154.539C1209.11 154.539 1210.05 154.104 1210.74 153.235C1211.42 152.361 1211.8 151.089 1211.88 149.419H1211.79C1211.43 149.888 1211.01 150.249 1210.52 150.503C1210.02 150.752 1209.51 150.876 1208.97 150.876C1207.98 150.876 1207.21 150.603 1206.65 150.056C1206.1 149.509 1205.82 148.733 1205.82 147.727C1205.82 146.653 1206.12 145.784 1206.73 145.12C1207.34 144.456 1208.13 144.124 1209.1 144.124C1209.81 144.124 1210.42 144.309 1210.95 144.68C1211.48 145.046 1211.88 145.586 1212.16 146.299C1212.45 147.012 1212.6 147.856 1212.6 148.833ZM1209.1 144.768C1208.33 144.768 1207.72 145.029 1207.26 145.552C1206.8 146.069 1206.57 146.78 1206.57 147.683C1206.57 148.533 1206.78 149.177 1207.21 149.617C1207.63 150.056 1208.24 150.276 1209.03 150.276C1209.52 150.276 1209.98 150.166 1210.41 149.946C1210.84 149.727 1211.18 149.436 1211.42 149.075C1211.68 148.708 1211.81 148.337 1211.81 147.961C1211.81 147.39 1211.69 146.855 1211.46 146.357C1211.24 145.859 1210.92 145.471 1210.51 145.193C1210.1 144.91 1209.64 144.768 1209.1 144.768ZM1217.51 148.562C1218.65 148.562 1219.55 148.838 1220.21 149.39C1220.87 149.941 1221.2 150.701 1221.2 151.667C1221.2 152.766 1220.85 153.621 1220.17 154.231C1219.49 154.841 1218.54 155.146 1217.34 155.146C1216.81 155.146 1216.31 155.095 1215.83 154.993C1215.35 154.885 1214.95 154.734 1214.63 154.539V153.784C1215.15 154.053 1215.62 154.241 1216.03 154.348C1216.44 154.451 1216.88 154.502 1217.34 154.502C1218.28 154.502 1219.03 154.255 1219.6 153.762C1220.17 153.264 1220.45 152.593 1220.45 151.748C1220.45 150.952 1220.17 150.327 1219.62 149.873C1219.07 149.419 1218.32 149.192 1217.37 149.192C1216.74 149.192 1216.07 149.287 1215.38 149.478L1214.94 149.192L1215.37 144.292H1220.52V144.995H1216.05L1215.72 148.774C1216.49 148.633 1217.08 148.562 1217.51 148.562ZM1225.63 150.891C1225.63 152.175 1225.44 153.372 1225.06 154.48C1224.68 155.588 1224.13 156.553 1223.42 157.373H1222.61C1224.09 155.4 1224.84 153.235 1224.84 150.876C1224.84 149.622 1224.64 148.433 1224.26 147.31C1223.87 146.182 1223.32 145.176 1222.59 144.292H1223.42C1224.14 145.146 1224.69 146.14 1225.06 147.273C1225.44 148.401 1225.63 149.607 1225.63 150.891ZM1238.49 152.268H1236.64V155H1235.95V152.268H1230.45V151.777L1235.76 144.233H1236.64V151.638H1238.49V152.268ZM1235.95 151.638V148.577C1235.95 147.102 1235.99 145.864 1236.06 144.863H1236C1235.9 145.044 1235.6 145.503 1235.1 146.24L1231.32 151.638H1235.95ZM1246.29 148.833C1246.29 150.239 1246.1 151.416 1245.73 152.363C1245.37 153.311 1244.83 154.011 1244.12 154.465C1243.42 154.919 1242.56 155.146 1241.56 155.146C1241.06 155.146 1240.59 155.083 1240.16 154.956V154.326C1240.37 154.395 1240.62 154.448 1240.91 154.487C1241.21 154.521 1241.44 154.539 1241.59 154.539C1242.8 154.539 1243.74 154.104 1244.43 153.235C1245.11 152.361 1245.49 151.089 1245.57 149.419H1245.48C1245.13 149.888 1244.7 150.249 1244.21 150.503C1243.71 150.752 1243.2 150.876 1242.66 150.876C1241.67 150.876 1240.9 150.603 1240.34 150.056C1239.79 149.509 1239.51 148.733 1239.51 147.727C1239.51 146.653 1239.82 145.784 1240.42 145.12C1241.03 144.456 1241.82 144.124 1242.79 144.124C1243.5 144.124 1244.11 144.309 1244.64 144.68C1245.17 145.046 1245.57 145.586 1245.86 146.299C1246.14 147.012 1246.29 147.856 1246.29 148.833ZM1242.79 144.768C1242.02 144.768 1241.41 145.029 1240.95 145.552C1240.49 146.069 1240.26 146.78 1240.26 147.683C1240.26 148.533 1240.47 149.177 1240.9 149.617C1241.32 150.056 1241.93 150.276 1242.72 150.276C1243.21 150.276 1243.67 150.166 1244.1 149.946C1244.53 149.727 1244.87 149.436 1245.12 149.075C1245.37 148.708 1245.5 148.337 1245.5 147.961C1245.5 147.39 1245.38 146.855 1245.15 146.357C1244.93 145.859 1244.61 145.471 1244.2 145.193C1243.8 144.91 1243.33 144.768 1242.79 144.768ZM1251.2 148.562C1252.35 148.562 1253.24 148.838 1253.9 149.39C1254.56 149.941 1254.89 150.701 1254.89 151.667C1254.89 152.766 1254.54 153.621 1253.86 154.231C1253.18 154.841 1252.24 155.146 1251.03 155.146C1250.5 155.146 1250 155.095 1249.52 154.993C1249.04 154.885 1248.64 154.734 1248.32 154.539V153.784C1248.84 154.053 1249.31 154.241 1249.72 154.348C1250.13 154.451 1250.57 154.502 1251.03 154.502C1251.97 154.502 1252.72 154.255 1253.29 153.762C1253.86 153.264 1254.14 152.593 1254.14 151.748C1254.14 150.952 1253.86 150.327 1253.31 149.873C1252.76 149.419 1252.01 149.192 1251.06 149.192C1250.43 149.192 1249.76 149.287 1249.07 149.478L1248.63 149.192L1249.06 144.292H1254.21V144.995H1249.75L1249.42 148.774C1250.18 148.633 1250.77 148.562 1251.2 148.562ZM1256.51 151.25V150.649H1259.99V151.25H1256.51ZM1268.26 148.833C1268.26 150.239 1268.08 151.416 1267.7 152.363C1267.34 153.311 1266.8 154.011 1266.09 154.465C1265.39 154.919 1264.54 155.146 1263.54 155.146C1263.03 155.146 1262.56 155.083 1262.13 154.956V154.326C1262.34 154.395 1262.59 154.448 1262.88 154.487C1263.18 154.521 1263.41 154.539 1263.57 154.539C1264.77 154.539 1265.72 154.104 1266.4 153.235C1267.08 152.361 1267.46 151.089 1267.54 149.419H1267.46C1267.1 149.888 1266.67 150.249 1266.18 150.503C1265.69 150.752 1265.17 150.876 1264.64 150.876C1263.64 150.876 1262.87 150.603 1262.31 150.056C1261.76 149.509 1261.49 148.733 1261.49 147.727C1261.49 146.653 1261.79 145.784 1262.39 145.12C1263 144.456 1263.8 144.124 1264.77 144.124C1265.47 144.124 1266.09 144.309 1266.61 144.68C1267.14 145.046 1267.55 145.586 1267.83 146.299C1268.12 147.012 1268.26 147.856 1268.26 148.833ZM1264.77 144.768C1264 144.768 1263.38 145.029 1262.92 145.552C1262.46 146.069 1262.23 146.78 1262.23 147.683C1262.23 148.533 1262.45 149.177 1262.87 149.617C1263.29 150.056 1263.9 150.276 1264.69 150.276C1265.19 150.276 1265.65 150.166 1266.07 149.946C1266.5 149.727 1266.84 149.436 1267.09 149.075C1267.34 148.708 1267.47 148.337 1267.47 147.961C1267.47 147.39 1267.35 146.855 1267.13 146.357C1266.9 145.859 1266.58 145.471 1266.17 145.193C1265.77 144.91 1265.3 144.768 1264.77 144.768ZM1273.18 148.562C1274.32 148.562 1275.22 148.838 1275.87 149.39C1276.53 149.941 1276.86 150.701 1276.86 151.667C1276.86 152.766 1276.52 153.621 1275.83 154.231C1275.15 154.841 1274.21 155.146 1273.01 155.146C1272.47 155.146 1271.97 155.095 1271.49 154.993C1271.01 154.885 1270.61 154.734 1270.29 154.539V153.784C1270.82 154.053 1271.29 154.241 1271.7 154.348C1272.11 154.451 1272.54 154.502 1273.01 154.502C1273.94 154.502 1274.7 154.255 1275.26 153.762C1275.83 153.264 1276.11 152.593 1276.11 151.748C1276.11 150.952 1275.84 150.327 1275.28 149.873C1274.73 149.419 1273.98 149.192 1273.04 149.192C1272.4 149.192 1271.74 149.287 1271.04 149.478L1270.6 149.192L1271.03 144.292H1276.19V144.995H1271.72L1271.39 148.774C1272.15 148.633 1272.75 148.562 1273.18 148.562ZM1278.49 151.25V150.649H1281.96V151.25H1278.49ZM1290.23 148.833C1290.23 150.239 1290.05 151.416 1289.68 152.363C1289.31 153.311 1288.77 154.011 1288.07 154.465C1287.36 154.919 1286.51 155.146 1285.51 155.146C1285 155.146 1284.53 155.083 1284.1 154.956V154.326C1284.31 154.395 1284.56 154.448 1284.86 154.487C1285.16 154.521 1285.38 154.539 1285.54 154.539C1286.74 154.539 1287.69 154.104 1288.37 153.235C1289.06 152.361 1289.44 151.089 1289.52 149.419H1289.43C1289.07 149.888 1288.65 150.249 1288.15 150.503C1287.66 150.752 1287.15 150.876 1286.61 150.876C1285.62 150.876 1284.84 150.603 1284.29 150.056C1283.73 149.509 1283.46 148.733 1283.46 147.727C1283.46 146.653 1283.76 145.784 1284.37 145.12C1284.98 144.456 1285.77 144.124 1286.74 144.124C1287.44 144.124 1288.06 144.309 1288.59 144.68C1289.11 145.046 1289.52 145.586 1289.8 146.299C1290.09 147.012 1290.23 147.856 1290.23 148.833ZM1286.74 144.768C1285.97 144.768 1285.35 145.029 1284.89 145.552C1284.44 146.069 1284.21 146.78 1284.21 147.683C1284.21 148.533 1284.42 149.177 1284.84 149.617C1285.27 150.056 1285.88 150.276 1286.67 150.276C1287.16 150.276 1287.62 150.166 1288.04 149.946C1288.47 149.727 1288.81 149.436 1289.06 149.075C1289.32 148.708 1289.44 148.337 1289.44 147.961C1289.44 147.39 1289.33 146.855 1289.1 146.357C1288.87 145.859 1288.56 145.471 1288.15 145.193C1287.74 144.91 1287.27 144.768 1286.74 144.768ZM1295.15 148.562C1296.29 148.562 1297.19 148.838 1297.84 149.39C1298.5 149.941 1298.83 150.701 1298.83 151.667C1298.83 152.766 1298.49 153.621 1297.81 154.231C1297.12 154.841 1296.18 155.146 1294.98 155.146C1294.45 155.146 1293.94 155.095 1293.46 154.993C1292.98 154.885 1292.58 154.734 1292.26 154.539V153.784C1292.79 154.053 1293.26 154.241 1293.67 154.348C1294.08 154.451 1294.52 154.502 1294.98 154.502C1295.92 154.502 1296.67 154.255 1297.24 153.762C1297.8 153.264 1298.08 152.593 1298.08 151.748C1298.08 150.952 1297.81 150.327 1297.26 149.873C1296.71 149.419 1295.96 149.192 1295.01 149.192C1294.37 149.192 1293.71 149.287 1293.02 149.478L1292.58 149.192L1293 144.292H1298.16V144.995H1293.69L1293.36 148.774C1294.12 148.633 1294.72 148.562 1295.15 148.562Z" fill="white"/>
<rect x="140" y="239" width="80" height="7" fill="#FFC600"/>
<path d="M518.98 152.228H520.33V157.412H517.45V155H511.15V157.412H508.27V152.228H509.548C510.208 151.28 510.538 149.888 510.538 148.052V142.4H518.98V152.228ZM512.608 152.228H516.1V145.1H513.418V148.088C513.418 149.876 513.148 151.256 512.608 152.228ZM535.94 153.362C534.668 154.622 533.12 155.252 531.296 155.252C529.472 155.252 527.924 154.622 526.652 153.362C525.38 152.102 524.744 150.548 524.744 148.7C524.744 146.852 525.38 145.298 526.652 144.038C527.924 142.778 529.472 142.148 531.296 142.148C533.12 142.148 534.668 142.778 535.94 144.038C537.212 145.298 537.848 146.852 537.848 148.7C537.848 150.548 537.212 152.102 535.94 153.362ZM528.668 151.4C529.376 152.096 530.252 152.444 531.296 152.444C532.34 152.444 533.21 152.096 533.906 151.4C534.614 150.704 534.968 149.804 534.968 148.7C534.968 147.596 534.614 146.696 533.906 146C533.21 145.304 532.34 144.956 531.296 144.956C530.252 144.956 529.376 145.304 528.668 146C527.972 146.696 527.624 147.596 527.624 148.7C527.624 149.804 527.972 150.704 528.668 151.4ZM549.081 155.252C547.197 155.252 545.631 154.628 544.383 153.38C543.147 152.12 542.529 150.56 542.529 148.7C542.529 146.84 543.147 145.286 544.383 144.038C545.631 142.778 547.197 142.148 549.081 142.148C550.209 142.148 551.253 142.412 552.213 142.94C553.173 143.456 553.929 144.164 554.481 145.064L551.997 146.504C551.721 146.012 551.325 145.634 550.809 145.37C550.293 145.094 549.717 144.956 549.081 144.956C547.965 144.956 547.071 145.298 546.399 145.982C545.739 146.666 545.409 147.572 545.409 148.7C545.409 149.828 545.739 150.734 546.399 151.418C547.071 152.102 547.965 152.444 549.081 152.444C549.717 152.444 550.293 152.306 550.809 152.03C551.337 151.754 551.733 151.376 551.997 150.896L554.481 152.336C553.941 153.236 553.191 153.95 552.231 154.478C551.271 154.994 550.221 155.252 549.081 155.252ZM567.891 142.4V145.172H564.651V155H561.771V145.172H558.531V142.4H567.891ZM579.865 155L579.235 153.02H574.555L573.925 155H570.775L575.059 142.4H578.731L583.015 155H579.865ZM575.419 150.32H578.371L576.895 145.694L575.419 150.32ZM595.501 148.466C596.533 149.126 597.049 150.074 597.049 151.31C597.049 152.402 596.659 153.29 595.879 153.974C595.099 154.658 594.133 155 592.981 155H587.689V142.4H592.621C593.749 142.4 594.691 142.736 595.447 143.408C596.215 144.068 596.599 144.932 596.599 146C596.599 147.008 596.233 147.83 595.501 148.466ZM592.621 145.1H590.569V147.332H592.621C592.945 147.332 593.209 147.23 593.413 147.026C593.617 146.81 593.719 146.54 593.719 146.216C593.719 145.892 593.617 145.628 593.413 145.424C593.209 145.208 592.945 145.1 592.621 145.1ZM592.981 152.3C593.341 152.3 593.629 152.192 593.845 151.976C594.061 151.748 594.169 151.454 594.169 151.094C594.169 150.734 594.061 150.446 593.845 150.23C593.629 150.002 593.341 149.888 592.981 149.888H590.569V152.3H592.981ZM612.27 155H608.994L604.962 149.168V155H602.082V142.4H604.962V147.872L608.814 142.4H612.09L607.842 148.538L612.27 155ZM625.311 155L624.681 153.02H620.001L619.371 155H616.221L620.505 142.4H624.177L628.461 155H625.311ZM620.865 150.32H623.817L622.341 145.694L620.865 150.32Z" fill="white"/>
<path d="M673.28 142.4V145.172H668.96V155H666.08V142.4H673.28ZM684.704 155L684.074 153.02H679.394L678.764 155H675.614L679.898 142.4H683.57L687.854 155H684.704ZM680.258 150.32H683.21L681.734 145.694L680.258 150.32ZM697.298 142.4C698.534 142.4 699.578 142.82 700.43 143.66C701.282 144.5 701.708 145.52 701.708 146.72C701.708 147.92 701.282 148.94 700.43 149.78C699.578 150.62 698.534 151.04 697.298 151.04H695.408V155H692.528V142.4H697.298ZM697.298 148.34C697.742 148.34 698.108 148.184 698.396 147.872C698.684 147.56 698.828 147.176 698.828 146.72C698.828 146.264 698.684 145.88 698.396 145.568C698.108 145.256 697.742 145.1 697.298 145.1H695.408V148.34H697.298ZM713.49 155L712.86 153.02H708.18L707.55 155H704.4L708.684 142.4H712.356L716.64 155H713.49ZM709.044 150.32H711.996L710.52 145.694L709.044 150.32ZM728.154 142.4H731.034V155H728.154V149.996H724.194V155H721.314V142.4H724.194V147.224H728.154V142.4ZM745.257 142.4V145.172H742.017V155H739.137V145.172H735.897V142.4H745.257ZM757.137 155V148.16L752.277 155H750.117V142.4H752.997V149.24L757.857 142.4H760.017V155H757.137ZM774.866 142.4V155H771.986V150.86H771.068L768.386 155H765.146L768.098 150.5C767.33 150.176 766.706 149.672 766.226 148.988C765.746 148.292 765.506 147.536 765.506 146.72C765.506 145.52 765.926 144.5 766.766 143.66C767.606 142.82 768.626 142.4 769.826 142.4H774.866ZM769.826 148.34H771.986V145.1H769.826C769.43 145.1 769.088 145.256 768.8 145.568C768.524 145.88 768.386 146.264 768.386 146.72C768.386 147.176 768.524 147.56 768.8 147.872C769.088 148.184 769.43 148.34 769.826 148.34Z" fill="white"/>
<path d="M823.268 155H819.992L815.96 149.168V155H813.08V142.4H815.96V147.872L819.812 142.4H823.088L818.84 148.538L823.268 155ZM837.531 153.362C836.259 154.622 834.711 155.252 832.887 155.252C831.063 155.252 829.515 154.622 828.243 153.362C826.971 152.102 826.335 150.548 826.335 148.7C826.335 146.852 826.971 145.298 828.243 144.038C829.515 142.778 831.063 142.148 832.887 142.148C834.711 142.148 836.259 142.778 837.531 144.038C838.803 145.298 839.439 146.852 839.439 148.7C839.439 150.548 838.803 152.102 837.531 153.362ZM830.259 151.4C830.967 152.096 831.843 152.444 832.887 152.444C833.931 152.444 834.801 152.096 835.497 151.4C836.205 150.704 836.559 149.804 836.559 148.7C836.559 147.596 836.205 146.696 835.497 146C834.801 145.304 833.931 144.956 832.887 144.956C831.843 144.956 830.967 145.304 830.259 146C829.563 146.696 829.215 147.596 829.215 148.7C829.215 149.804 829.563 150.704 830.259 151.4ZM851.501 142.4H854.381V155H851.501V149.996H847.541V155H844.661V142.4H847.541V147.224H851.501V142.4ZM868.604 142.4V145.172H865.364V155H862.484V145.172H859.244V142.4H868.604ZM880.578 155L879.948 153.02H875.268L874.638 155H871.488L875.772 142.4H879.444L883.728 155H880.578ZM876.132 150.32H879.084L877.608 145.694L876.132 150.32ZM898.59 155H895.314L891.282 149.168V155H888.402V142.4H891.282V147.872L895.134 142.4H898.41L894.162 148.538L898.59 155ZM911.73 142.4V145.172H908.49V155H905.61V145.172H902.37V142.4H911.73ZM916.591 155V142.4H919.471V146.36H921.361C922.597 146.36 923.641 146.78 924.493 147.62C925.345 148.46 925.771 149.48 925.771 150.68C925.771 151.88 925.345 152.9 924.493 153.74C923.641 154.58 922.597 155 921.361 155H916.591ZM926.851 155V142.4H929.731V155H926.851ZM919.471 152.3H921.361C921.805 152.3 922.171 152.144 922.459 151.832C922.747 151.52 922.891 151.136 922.891 150.68C922.891 150.224 922.747 149.84 922.459 149.528C922.171 149.216 921.805 149.06 921.361 149.06H919.471V152.3Z" fill="white"/>
<path d="M1000.52 51.292H1003.45C1004.78 51.292 1005.75 51.5166 1006.37 51.9658C1006.99 52.415 1007.3 53.0938 1007.3 54.002C1007.3 54.6221 1007.11 55.1396 1006.73 55.5547C1006.35 55.9648 1005.8 56.2285 1005.07 56.3457V56.3896C1005.93 56.5166 1006.55 56.7876 1006.95 57.2026C1007.36 57.6128 1007.56 58.1865 1007.56 58.9238C1007.56 59.9102 1007.23 60.6694 1006.58 61.2017C1005.93 61.7339 1005 62 1003.8 62H1000.52V51.292ZM1001.26 56.0601H1003.62C1004.63 56.0601 1005.36 55.894 1005.81 55.562C1006.27 55.2251 1006.5 54.7002 1006.5 53.9873C1006.5 53.2744 1006.24 52.7568 1005.72 52.4346C1005.21 52.1123 1004.44 51.9512 1003.42 51.9512H1001.26V56.0601ZM1001.26 56.7192V61.3408H1003.78C1005.77 61.3408 1006.76 60.5352 1006.76 58.9238C1006.76 57.4541 1005.71 56.7192 1003.62 56.7192H1001.26ZM1016.32 58.0083C1016.32 59.3071 1016.01 60.3228 1015.38 61.0552C1014.75 61.7827 1013.88 62.1465 1012.77 62.1465C1012.07 62.1465 1011.46 61.978 1010.92 61.6411C1010.39 61.3042 1009.98 60.8208 1009.7 60.1909C1009.42 59.561 1009.28 58.8335 1009.28 58.0083C1009.28 56.7095 1009.59 55.6987 1010.22 54.9761C1010.85 54.2485 1011.71 53.8848 1012.81 53.8848C1013.91 53.8848 1014.76 54.2534 1015.38 54.9907C1016.01 55.7231 1016.32 56.729 1016.32 58.0083ZM1010.04 58.0083C1010.04 59.1021 1010.28 59.9565 1010.76 60.5718C1011.24 61.1821 1011.92 61.4873 1012.8 61.4873C1013.68 61.4873 1014.36 61.1821 1014.83 60.5718C1015.32 59.9565 1015.56 59.1021 1015.56 58.0083C1015.56 56.9097 1015.32 56.0576 1014.83 55.4521C1014.34 54.8467 1013.66 54.5439 1012.78 54.5439C1011.91 54.5439 1011.23 54.8467 1010.75 55.4521C1010.27 56.0527 1010.04 56.9048 1010.04 58.0083ZM1019.21 54.0386V59.7954L1019.17 61.2969L1023.9 54.0386H1024.86V62H1024.17V56.2798L1024.2 54.7417L1019.47 62H1018.53V54.0386H1019.21ZM1021.7 52.9106C1020.97 52.9106 1020.42 52.7495 1020.04 52.4272C1019.65 52.1001 1019.43 51.5752 1019.37 50.8525H1020.01C1020.09 51.3896 1020.25 51.7705 1020.51 51.9951C1020.77 52.2148 1021.17 52.3247 1021.71 52.3247C1022.25 52.3247 1022.65 52.21 1022.91 51.9805C1023.17 51.751 1023.33 51.375 1023.39 50.8525H1024.03C1023.93 52.2246 1023.15 52.9106 1021.7 52.9106ZM1032.59 54.6685H1029.94V62H1029.22V54.6685H1026.5V54.0386H1032.59V54.6685ZM1034.92 54.0386V59.7954L1034.87 61.2969L1039.6 54.0386H1040.56V62H1039.87V56.2798L1039.9 54.7417L1035.17 62H1034.23V54.0386H1034.92Z" fill="white" fill-opacity="0.7"/>
<g filter="url(#filter0_d)">
<path d="M981.5 52.3333C982.697 52.3333 983.667 53.3774 983.667 54.6666C983.667 55.9558 982.697 56.9999 981.5 56.9999C980.303 56.9999 979.333 55.9558 979.333 54.6666C979.333 53.3774 980.303 52.3333 981.5 52.3333ZM981.5 61.6666C981.5 61.6666 985.833 61.6666 985.833 60.4999C985.833 59.0999 983.721 57.5833 981.5 57.5833C979.279 57.5833 977.167 59.0999 977.167 60.4999C977.167 61.6666 981.5 61.6666 981.5 61.6666Z" fill="#FFC600"/>
</g>
<path d="M1114.09 51.812C1112.74 51.812 1111.69 52.2417 1110.92 53.1011C1110.14 53.9604 1109.76 55.1372 1109.76 56.6313C1109.76 58.1597 1110.12 59.3462 1110.85 60.1909C1111.58 61.0356 1112.62 61.458 1113.97 61.458C1114.87 61.458 1115.69 61.3433 1116.44 61.1138V61.7729C1115.74 62.022 1114.85 62.1465 1113.79 62.1465C1112.29 62.1465 1111.11 61.6606 1110.24 60.689C1109.38 59.7173 1108.94 58.3599 1108.94 56.6167C1108.94 55.5278 1109.15 54.5684 1109.56 53.7383C1109.98 52.9082 1110.57 52.2686 1111.34 51.8193C1112.12 51.3652 1113.02 51.1382 1114.04 51.1382C1115.09 51.1382 1116.02 51.3335 1116.85 51.7241L1116.55 52.3979C1115.77 52.0073 1114.95 51.812 1114.09 51.812ZM1122.06 62.1465C1120.83 62.1465 1119.94 61.6875 1119.37 60.7695H1119.32L1119.35 61.3848C1119.36 61.7461 1119.37 62.1416 1119.37 62.5713V65.6035H1118.65V54.0386H1119.26L1119.4 55.1738H1119.45C1119.99 54.3145 1120.87 53.8848 1122.07 53.8848C1123.14 53.8848 1123.96 54.2388 1124.52 54.9468C1125.09 55.6499 1125.37 56.6753 1125.37 58.0229C1125.37 59.3315 1125.08 60.3472 1124.48 61.0698C1123.89 61.7876 1123.08 62.1465 1122.06 62.1465ZM1122.04 61.502C1122.86 61.502 1123.49 61.1992 1123.93 60.5938C1124.38 59.9883 1124.6 59.1411 1124.6 58.0522C1124.6 55.7134 1123.76 54.5439 1122.07 54.5439C1121.14 54.5439 1120.46 54.8003 1120.03 55.313C1119.59 55.8208 1119.37 56.6509 1119.37 57.8032V58.0376C1119.37 59.2827 1119.58 60.1714 1120 60.7036C1120.42 61.2358 1121.1 61.502 1122.04 61.502ZM1132.42 62L1132.24 60.7402H1132.18C1131.78 61.2529 1131.36 61.6167 1130.94 61.8315C1130.52 62.0415 1130.02 62.1465 1129.45 62.1465C1128.66 62.1465 1128.06 61.9463 1127.62 61.5459C1127.19 61.1455 1126.97 60.5913 1126.97 59.8833C1126.97 59.1069 1127.29 58.5039 1127.94 58.0742C1128.59 57.6445 1129.52 57.4175 1130.75 57.3931L1132.27 57.3491V56.8218C1132.27 56.0649 1132.11 55.4937 1131.8 55.1079C1131.5 54.7222 1131 54.5293 1130.32 54.5293C1129.58 54.5293 1128.82 54.7344 1128.02 55.1445L1127.75 54.5146C1128.63 54.1045 1129.49 53.8994 1130.35 53.8994C1131.22 53.8994 1131.87 54.1265 1132.3 54.5806C1132.74 55.0347 1132.95 55.7427 1132.95 56.7046V62H1132.42ZM1129.49 61.4873C1130.34 61.4873 1131.01 61.2456 1131.5 60.7622C1131.99 60.2739 1132.24 59.5977 1132.24 58.7334V57.9497L1130.84 58.0083C1129.73 58.062 1128.93 58.2378 1128.45 58.5356C1127.98 58.8286 1127.74 59.2876 1127.74 59.9126C1127.74 60.4106 1127.89 60.7988 1128.19 61.0771C1128.5 61.3506 1128.93 61.4873 1129.49 61.4873ZM1141.65 55.9575C1141.65 56.4604 1141.52 56.856 1141.27 57.144C1141.02 57.4272 1140.62 57.625 1140.06 57.7373V57.7886C1140.7 57.8618 1141.16 58.0474 1141.44 58.3452C1141.73 58.6382 1141.87 59.0605 1141.87 59.6123C1141.87 60.3789 1141.62 60.9697 1141.11 61.3848C1140.61 61.7949 1139.87 62 1138.9 62H1135.54V54.0386H1138.92C1139.82 54.0386 1140.5 54.2021 1140.96 54.5293C1141.42 54.8564 1141.65 55.3325 1141.65 55.9575ZM1141.11 59.5977C1141.11 58.6211 1140.36 58.1328 1138.86 58.1328H1136.26V61.3115H1138.96C1140.39 61.3115 1141.11 60.7402 1141.11 59.5977ZM1140.88 56.0161C1140.88 55.5522 1140.71 55.2227 1140.38 55.0273C1140.05 54.8271 1139.55 54.7271 1138.89 54.7271H1136.26V57.4517H1138.8C1139.54 57.4517 1140.07 57.3369 1140.4 57.1074C1140.72 56.8779 1140.88 56.5142 1140.88 56.0161ZM1144.76 54.0386V57.5322H1149.81V54.0386H1150.53V62H1149.81V58.1621H1144.76V62H1144.04V54.0386H1144.76ZM1153.89 54.0386V59.7954L1153.85 61.2969L1158.57 54.0386H1159.54V62H1158.84V56.2798L1158.87 54.7417L1154.15 62H1153.21V54.0386H1153.89ZM1167.27 54.6685H1164.62V62H1163.9V54.6685H1161.18V54.0386H1167.27V54.6685ZM1169.63 57.3931H1172.44C1174.31 57.3931 1175.24 58.1279 1175.24 59.5977C1175.24 60.3545 1174.98 60.9453 1174.46 61.3701C1173.94 61.79 1173.19 62 1172.21 62H1168.91V54.0386H1169.63V57.3931ZM1169.63 58.0815V61.3115H1172.33C1173.02 61.3115 1173.55 61.165 1173.92 60.8721C1174.29 60.5791 1174.47 60.1494 1174.47 59.583C1174.47 59.0557 1174.31 58.6748 1173.98 58.4404C1173.66 58.2012 1173.09 58.0815 1172.28 58.0815H1169.63Z" fill="white" fill-opacity="0.7"/>
<path d="M1085.92 56.3667H1087.67V62.0834H1085.92V56.3667ZM1089.18 53.9167H1090.82V62.0834H1089.18V53.9167ZM1092.45 58.5834H1094.08V62.0834H1092.45V58.5834Z" fill="#FFC600"/>
<path d="M1248.58 62H1247.56L1242.26 56.5435V62H1241.52V51.292H1242.26V56.4775L1247.41 51.292H1248.4L1243.22 56.4775L1248.58 62ZM1256.5 58.0083C1256.5 59.3071 1256.19 60.3228 1255.56 61.0552C1254.93 61.7827 1254.06 62.1465 1252.95 62.1465C1252.25 62.1465 1251.64 61.978 1251.1 61.6411C1250.57 61.3042 1250.16 60.8208 1249.88 60.1909C1249.6 59.561 1249.46 58.8335 1249.46 58.0083C1249.46 56.7095 1249.77 55.6987 1250.4 54.9761C1251.03 54.2485 1251.89 53.8848 1252.99 53.8848C1254.09 53.8848 1254.94 54.2534 1255.56 54.9907C1256.19 55.7231 1256.5 56.729 1256.5 58.0083ZM1250.22 58.0083C1250.22 59.1021 1250.46 59.9565 1250.94 60.5718C1251.42 61.1821 1252.1 61.4873 1252.98 61.4873C1253.86 61.4873 1254.54 61.1821 1255.01 60.5718C1255.5 59.9565 1255.74 59.1021 1255.74 58.0083C1255.74 56.9097 1255.5 56.0576 1255.01 55.4521C1254.52 54.8467 1253.84 54.5439 1252.96 54.5439C1252.08 54.5439 1251.41 54.8467 1250.93 55.4521C1250.45 56.0527 1250.22 56.9048 1250.22 58.0083ZM1262.11 62.1465C1260.89 62.1465 1259.99 61.6875 1259.43 60.7695H1259.38L1259.4 61.3848C1259.42 61.7461 1259.43 62.1416 1259.43 62.5713V65.6035H1258.71V54.0386H1259.32L1259.46 55.1738H1259.5C1260.05 54.3145 1260.93 53.8848 1262.13 53.8848C1263.2 53.8848 1264.02 54.2388 1264.58 54.9468C1265.15 55.6499 1265.43 56.6753 1265.43 58.0229C1265.43 59.3315 1265.13 60.3472 1264.54 61.0698C1263.95 61.7876 1263.14 62.1465 1262.11 62.1465ZM1262.1 61.502C1262.91 61.502 1263.54 61.1992 1263.99 60.5938C1264.44 59.9883 1264.66 59.1411 1264.66 58.0522C1264.66 55.7134 1263.82 54.5439 1262.13 54.5439C1261.2 54.5439 1260.52 54.8003 1260.08 55.313C1259.65 55.8208 1259.43 56.6509 1259.43 57.8032V58.0376C1259.43 59.2827 1259.64 60.1714 1260.05 60.7036C1260.47 61.2358 1261.15 61.502 1262.1 61.502ZM1269.14 57.4736C1270.58 57.4736 1271.3 56.978 1271.3 55.9868C1271.3 55.5132 1271.14 55.1519 1270.81 54.9028C1270.47 54.6538 1270 54.5293 1269.38 54.5293C1268.99 54.5293 1268.63 54.5757 1268.29 54.6685C1267.96 54.7563 1267.6 54.8857 1267.21 55.0566L1266.94 54.4561C1267.79 54.0752 1268.61 53.8848 1269.41 53.8848C1270.28 53.8848 1270.94 54.0654 1271.39 54.4268C1271.84 54.7881 1272.07 55.2886 1272.07 55.9282C1272.07 56.8511 1271.59 57.4395 1270.64 57.6934V57.7373C1271.24 57.8838 1271.67 58.1279 1271.93 58.4697C1272.2 58.8066 1272.34 59.2388 1272.34 59.7661C1272.34 60.5034 1272.07 61.0845 1271.52 61.5093C1270.99 61.9341 1270.24 62.1465 1269.28 62.1465C1268.76 62.1465 1268.29 62.0977 1267.86 62C1267.44 61.8975 1267.08 61.7632 1266.81 61.5972V60.8721C1267.31 61.1113 1267.74 61.2749 1268.11 61.3628C1268.48 61.4458 1268.87 61.4873 1269.28 61.4873C1270 61.4873 1270.57 61.3359 1270.97 61.0332C1271.37 60.7256 1271.57 60.2886 1271.57 59.7222C1271.57 59.1704 1271.38 58.7627 1271 58.499C1270.61 58.2354 1270.03 58.1035 1269.26 58.1035H1268.15V57.4736H1269.14ZM1275.11 54.0386V59.7954L1275.07 61.2969L1279.79 54.0386H1280.76V62H1280.06V56.2798L1280.09 54.7417L1275.37 62H1274.42V54.0386H1275.11ZM1284.16 54.0386V57.5322H1289.21V54.0386H1289.93V62H1289.21V58.1621H1284.16V62H1283.43V54.0386H1284.16ZM1297.44 62L1297.25 60.7402H1297.19C1296.79 61.2529 1296.38 61.6167 1295.96 61.8315C1295.54 62.0415 1295.04 62.1465 1294.46 62.1465C1293.68 62.1465 1293.07 61.9463 1292.64 61.5459C1292.2 61.1455 1291.99 60.5913 1291.99 59.8833C1291.99 59.1069 1292.31 58.5039 1292.95 58.0742C1293.6 57.6445 1294.54 57.4175 1295.77 57.3931L1297.28 57.3491V56.8218C1297.28 56.0649 1297.13 55.4937 1296.82 55.1079C1296.51 54.7222 1296.02 54.5293 1295.33 54.5293C1294.6 54.5293 1293.83 54.7344 1293.04 55.1445L1292.77 54.5146C1293.65 54.1045 1294.51 53.8994 1295.36 53.8994C1296.24 53.8994 1296.89 54.1265 1297.32 54.5806C1297.75 55.0347 1297.97 55.7427 1297.97 56.7046V62H1297.44ZM1294.51 61.4873C1295.36 61.4873 1296.03 61.2456 1296.51 60.7622C1297.01 60.2739 1297.25 59.5977 1297.25 58.7334V57.9497L1295.86 58.0083C1294.74 58.062 1293.95 58.2378 1293.47 58.5356C1292.99 58.8286 1292.76 59.2876 1292.76 59.9126C1292.76 60.4106 1292.91 60.7988 1293.21 61.0771C1293.52 61.3506 1293.95 61.4873 1294.51 61.4873Z" fill="white" fill-opacity="0.7"/>
<g clip-path="url(#clip0)">
<path d="M1227.86 53.5216C1227.79 53.4398 1227.69 53.3931 1227.59 53.3931H1225.66V54.4187C1225.66 54.89 1225.25 55.2734 1224.76 55.2734C1224.26 55.2734 1223.86 54.89 1223.86 54.4187V53.3931H1222.05V54.4187C1222.05 54.89 1221.65 55.2734 1221.15 55.2734C1220.66 55.2734 1220.25 54.89 1220.25 54.4187V53.3931H1218.32C1218.22 53.3931 1218.12 53.4398 1218.05 53.5216C1217.98 53.6034 1217.95 53.7125 1217.96 53.8214L1218.61 59.7845C1218.62 60.4568 1219.14 60.9999 1219.78 60.9999H1226.13C1226.77 60.9999 1227.29 60.4568 1227.3 59.7844L1227.95 53.8213C1227.96 53.7125 1227.93 53.6034 1227.86 53.5216Z" fill="#FFC600"/>
<path d="M1221.15 54.7607C1221.35 54.7607 1221.51 54.6074 1221.51 54.4188V52.5385C1221.51 52.0105 1222.07 51.6838 1222.59 51.6838H1223.5C1224.04 51.6838 1224.4 52.0192 1224.4 52.5385V54.4188C1224.4 54.6074 1224.56 54.7607 1224.76 54.7607C1224.96 54.7607 1225.12 54.6074 1225.12 54.4188V52.5385C1225.12 51.647 1224.44 51 1223.5 51H1222.59C1221.6 51 1220.79 51.6902 1220.79 52.5385V54.4188C1220.79 54.6074 1220.95 54.7607 1221.15 54.7607Z" fill="#FFC600"/>
</g>
<path d="M683.997 243C683.997 234.163 676.835 227 667.999 227C659.163 227 652 234.163 652 243C652 250.984 657.851 257.603 665.499 258.803V247.624H661.437V242.999H665.499V239.475C665.499 235.464 667.888 233.249 671.541 233.249C673.292 233.249 675.123 233.561 675.123 233.561V237.499H673.107C671.12 237.499 670.5 238.732 670.5 239.997V243H674.937L674.228 247.625H670.5V258.804C678.148 257.604 683.999 250.985 683.999 243H683.997Z" fill="white" fill-opacity="0.3"/>
<path d="M725 243C725 244.326 724.473 245.598 723.536 246.536C722.598 247.473 721.326 248 720 248C718.674 248 717.402 247.473 716.464 246.536C715.527 245.598 715 244.326 715 243C715 242.715 715.03 242.437 715.082 242.167H713.333V248.828C713.333 249.292 713.708 249.667 714.172 249.667H725.83C726.052 249.666 726.265 249.578 726.422 249.421C726.579 249.263 726.667 249.05 726.667 248.828V242.167H724.918C724.97 242.437 725 242.715 725 243ZM720 246.333C720.438 246.333 720.871 246.247 721.276 246.079C721.68 245.912 722.048 245.666 722.357 245.356C722.667 245.047 722.912 244.679 723.08 244.274C723.247 243.87 723.333 243.436 723.333 242.998C723.333 242.56 723.247 242.127 723.079 241.722C722.912 241.318 722.666 240.95 722.356 240.641C722.047 240.331 721.679 240.086 721.274 239.918C720.87 239.751 720.436 239.665 719.998 239.665C719.114 239.665 718.266 240.017 717.641 240.642C717.016 241.268 716.665 242.116 716.665 243C716.665 243.884 717.017 244.732 717.642 245.357C718.268 245.982 719.116 246.334 720 246.333ZM724 239.5H725.998C726.131 239.5 726.258 239.447 726.352 239.354C726.447 239.26 726.5 239.133 726.5 239V237.002C726.5 236.869 726.447 236.741 726.353 236.647C726.259 236.553 726.131 236.5 725.998 236.5H724C723.867 236.5 723.739 236.553 723.645 236.647C723.551 236.741 723.498 236.869 723.498 237.002V239C723.5 239.275 723.725 239.5 724 239.5ZM720 227C715.757 227 711.687 228.686 708.686 231.686C705.686 234.687 704 238.757 704 243C704 247.243 705.686 251.313 708.686 254.314C711.687 257.314 715.757 259 720 259C722.101 259 724.182 258.586 726.123 257.782C728.064 256.978 729.828 255.799 731.314 254.314C732.799 252.828 733.978 251.064 734.782 249.123C735.586 247.182 736 245.101 736 243C736 240.899 735.586 238.818 734.782 236.877C733.978 234.936 732.799 233.172 731.314 231.686C729.828 230.201 728.064 229.022 726.123 228.218C724.182 227.414 722.101 227 720 227ZM728.333 249.482C728.333 250.5 727.5 251.333 726.482 251.333H713.518C712.5 251.333 711.667 250.5 711.667 249.482V236.518C711.667 235.5 712.5 234.667 713.518 234.667H726.482C727.5 234.667 728.333 235.5 728.333 236.518V249.482Z" fill="white" fill-opacity="0.3"/>
<path d="M772 259C769.833 259 767.76 258.578 765.781 257.734C763.802 256.891 762.099 255.755 760.672 254.328C759.245 252.901 758.109 251.198 757.266 249.219C756.422 247.24 756 245.167 756 243C756 240.833 756.422 238.76 757.266 236.781C758.109 234.802 759.245 233.099 760.672 231.672C762.099 230.245 763.802 229.109 765.781 228.266C767.76 227.422 769.833 227 772 227C774.167 227 776.24 227.422 778.219 228.266C780.198 229.109 781.901 230.245 783.328 231.672C784.755 233.099 785.891 234.802 786.734 236.781C787.578 238.76 788 240.833 788 243C788 245.167 787.578 247.24 786.734 249.219C785.891 251.198 784.755 252.901 783.328 254.328C781.901 255.755 780.198 256.891 778.219 257.734C776.24 258.578 774.167 259 772 259ZM781.406 235C781.281 235.062 781.094 235.177 780.844 235.344L780.234 235.75L779.656 236.062L779 236.281C778.229 235.427 777.281 235 776.156 235C773.719 235 772.5 236.021 772.5 238.062V239.906C769.146 239.74 766.573 238.51 764.781 236.219C764.26 236.76 764 237.354 764 238C764 239.375 764.51 240.417 765.531 241.125C765.406 241.125 765.229 241.135 765 241.156C764.771 241.177 764.589 241.177 764.453 241.156C764.318 241.135 764.167 241.083 764 241C764 241.958 764.255 242.755 764.766 243.391C765.276 244.026 765.979 244.438 766.875 244.625C766.667 244.875 766.375 245 766 245C765.667 245 765.375 244.906 765.125 244.719C765.125 245.531 765.516 246.161 766.297 246.609C767.078 247.057 767.958 247.292 768.938 247.312C768.562 247.875 768.016 248.297 767.297 248.578C766.578 248.859 765.812 249 765 249C764.708 249 764.307 248.927 763.797 248.781C763.286 248.635 763.021 248.562 763 248.562C763.333 249.229 764.016 249.802 765.047 250.281C766.078 250.76 767.385 251 768.969 251C770.365 251 771.667 250.755 772.875 250.266C774.083 249.776 775.115 249.125 775.969 248.312C776.823 247.5 777.557 246.573 778.172 245.531C778.786 244.49 779.245 243.411 779.547 242.297C779.849 241.182 780 240.083 780 239C780 238.958 780.125 238.87 780.375 238.734C780.625 238.599 780.917 238.417 781.25 238.188C781.583 237.958 781.833 237.719 782 237.469C780.875 237.469 780.125 237.49 779.75 237.531C780.479 237.094 781.031 236.25 781.406 235Z" fill="white" fill-opacity="0.3"/>
<g clip-path="url(#clip1)">
<path fill-rule="evenodd" clip-rule="evenodd" d="M139.849 64.7021V98.3021H153.381C155.562 98.3554 157.731 97.954 159.749 97.1235C161.766 96.293 163.589 95.0515 165.101 93.4781C166.651 91.9008 167.867 90.0274 168.676 87.9697C169.486 85.9121 169.872 83.7124 169.813 81.5021C169.872 79.2917 169.486 77.092 168.676 75.0344C167.867 72.9768 166.651 71.1034 165.101 69.5261C163.589 67.9528 161.766 66.7114 159.749 65.8809C157.731 65.0503 155.562 64.6489 153.381 64.7021H139.849ZM147.582 90.9101V72.0911H153.382C154.585 72.0432 155.784 72.2468 156.903 72.689C158.022 73.1312 159.037 73.8022 159.882 74.6591C160.73 75.5767 161.388 76.6542 161.815 77.8286C162.242 79.003 162.431 80.2508 162.371 81.4991C162.431 82.7474 162.242 83.9952 161.815 85.1696C161.388 86.344 160.73 87.4215 159.882 88.3391C159.037 89.1961 158.022 89.8672 156.903 90.3094C155.784 90.7517 154.585 90.9552 153.382 90.9071H147.582V90.9101ZM182.382 84.9581H194.464V77.6581H182.378V72.0911H195.669V64.7021H174.645V98.3021H195.91V90.9101H182.378V84.9581H182.382ZM218.725 98.3021L229.744 64.7021H221.286L213.795 89.4221L206.304 64.7021H197.847L208.866 98.3021H218.725ZM233.125 98.3021H240.858V64.7021H233.125V98.3021ZM271.74 96.8861C274.233 95.574 276.321 93.6076 277.781 91.1981L271.111 87.3581C270.381 88.659 269.279 89.7121 267.946 90.3821C266.505 91.1263 264.903 91.5041 263.282 91.4821C261.962 91.5449 260.643 91.3343 259.408 90.8635C258.173 90.3927 257.048 89.6718 256.105 88.7461C255.195 87.7792 254.489 86.6394 254.028 85.3943C253.568 84.1492 253.362 82.8242 253.423 81.4981C253.362 80.1719 253.568 78.8469 254.028 77.6018C254.489 76.3567 255.195 75.2169 256.105 74.2501C257.048 73.3243 258.173 72.6034 259.408 72.1326C260.643 71.6618 261.962 71.4512 263.282 71.5141C264.893 71.491 266.486 71.8618 267.921 72.5941C269.263 73.2719 270.373 74.3327 271.111 75.6421L277.781 71.8021C276.294 69.3975 274.191 67.4338 271.691 66.1141C269.109 64.721 266.216 64.0027 263.282 64.0261C253.503 63.7541 245.485 71.7171 245.691 81.4981C245.483 91.2791 253.5 99.2451 263.279 98.9741C266.229 99.0013 269.138 98.2831 271.737 96.8861H271.74ZM289.621 84.9581H301.703V77.6581H289.618V72.0911H302.908V64.7021H281.885V98.3021H303.15V90.9101H289.618V84.9581H289.621Z" fill="#F0C52E"/>
</g>
<g clip-path="url(#clip2)">
<path d="M1286.62 226.017L1286.47 226L1273 227.408V252.004L1286.47 260L1299.9 252.031L1299.94 252.006V227.408L1286.62 226.017ZM1298.02 238.095L1286.49 231.32L1286.49 231.216L1286.41 231.266L1286.32 231.21V231.319L1274.92 238.086V229.139L1286.47 227.93L1298.02 229.139V238.095H1298.02ZM1286.4 232.769L1297.92 239.464L1293.44 242.097L1286.35 237.888L1286.34 239.299L1292.24 242.803L1291.38 243.308L1286.35 240.324L1286.34 241.735L1290.16 244.004L1289.38 244.526L1286.35 242.744L1286.34 244.153L1288.19 245.241L1286.39 246.319L1275.03 239.586L1286.4 232.769ZM1274.92 241.087L1286.34 247.86L1286.35 248.901L1278.41 244.186L1278.39 245.598L1286.37 250.38L1286.39 251.454L1278.42 246.726L1278.41 248.136L1286.43 252.946L1286.47 252.971L1294.62 248.111L1294.6 242.948L1298.02 240.918V250.912L1286.47 257.766L1274.92 250.913V241.087Z" fill="#F0C52E"/>
</g>
<rect x="964" y="4" width="22" height="13" fill="#C4C4C4"/>
<defs>
<filter id="filter0_d" x="971" y="50" width="21" height="22" filterUnits="userSpaceOnUse" color-interpolation-filters="sRGB">
<feFlood flood-opacity="0" result="BackgroundImageFix"/>
<feColorMatrix in="SourceAlpha" type="matrix" values="0 0 0 0 0 0 0 0 0 0 0 0 0 0 0 0 0 0 127 0"/>
<feOffset dy="4"/>
<feGaussianBlur stdDeviation="2"/>
<feColorMatrix type="matrix" values="0 0 0 0 0 0 0 0 0 0 0 0 0 0 0 0 0 0 0.25 0"/>
<feBlend mode="normal" in2="BackgroundImageFix" result="effect1_dropShadow"/>
<feBlend mode="normal" in="SourceGraphic" in2="effect1_dropShadow" result="shape"/>
</filter>
<clipPath id="clip0">
<rect width="10" height="10" fill="white" transform="translate(1218 51)"/>
</clipPath>
<clipPath id="clip1">
<rect width="163" height="35" fill="white" transform="translate(140 64)"/>
</clipPath>
<clipPath id="clip2">
<rect width="26.943" height="34" fill="white" transform="translate(1273 226)"/>
</clipPath>
</defs>
</svg>
